<svg viewBox="0 0 640 400" data-background-color="#f9e17e" preserveAspectRatio="xMidYMid meet" height="400" width="640" xmlns="http://www.w3.org/2000/svg" xmlns:xlink="http://www.w3.org/1999/xlink"><rect width="640" height="400" x="0" y="0" opacity="1" fill="#f9e17e" data-fill-palette-color="background" id="background"></rect><g id="tight-bounds" transform="matrix(1,0,0,1,180,60)"><svg viewBox="0 0 280 280" height="280" width="280"><g><svg viewBox="0 0 280 280" height="280" width="280"><g><svg viewBox="0 0 280 280" height="280" width="280"><g id="textblocktransform"><svg viewBox="0 0 280 280" height="280" width="280" id="textblock"><g><svg viewBox="0 0 280 280" height="280" width="280"><g transform="matrix(1,0,0,1,117.79844497659315,90.50252531694167)"><svg viewBox="0 0 44.403110046813715 98.99494936611666" height="98.99494936611666" width="44.403110046813715"><g><svg xmlns:dc="http://purl.org/dc/elements/1.1/" xmlns:cc="http://creativecommons.org/ns#" xmlns:rdf="http://www.w3.org/1999/02/22-rdf-syntax-ns#" xmlns:svg="http://www.w3.org/2000/svg" xmlns="http://www.w3.org/2000/svg" xmlns:sodipodi="http://sodipodi.sourceforge.net/DTD/sodipodi-0.dtd" xmlns:inkscape="http://www.inkscape.org/namespaces/inkscape" viewBox="17.46632957458496 0.8168929815292358 35.16546630859375 78.39999389648438" version="1.1" x="0" y="0" height="98.99494936611666" width="44.403110046813715" class="icon-o-0" data-fill-palette-color="accent" id="o-0"><path d="M38.931 0.817L30.947 17.663c-2.218 0.138-3.761 0.611-3.926 1.488l-0.001 0.085c-0.093 1.356 3.191 2.705 7.44 3.049 4.364 0.353 8.114-0.477 8.373-1.857 0.144-0.765-0.852-1.396-2.497-1.868L38.931 0.817z m-1.137 5.04l0.278 0.811 0.836 0.187-0.688 0.527 0.076 0.859-0.701-0.519-0.792 0.359 0.252-0.83-0.562-0.658 0.858 0.011 0.443-0.747z m-0.34 3.888l0.144 1.057 0.944 0.461-0.94 0.458-0.159 1.043-0.738-0.766-1.047 0.184 0.506-0.933-0.478-0.935 1.027 0.185 0.741-0.754z m-3.459 4.714l0.682 0.801 1.051-0.078-0.582 0.886 0.423 0.97-1.027-0.27-0.796 0.702-0.058-1.056-0.902-0.556 0.979-0.382 0.23-1.017z m4.444-1.011l0.139 1.036 0.949 0.481-0.96 0.463-0.164 1.023-0.713-0.751-1.052 0.164 0.506-0.933-0.478-0.934 1.028 0.184 0.745-0.733z" fill="#454545" fill-opacity="1" stroke="none" data-fill-palette-color="accent"></path><path d="M31.248 18.434c-1.104 0.996-1.811 2.422-1.811 4.024 0 0.763 0.158 1.492 0.443 2.153 0.023-0.559-0.486-1.548 0.06-1.67 0.871-0.194 0.351 2.206 1.228 2.374 0.574 0.11 0.335-1.321 1.328-1.146 0.927 0.162 0.295 1.607 0.925 1.649 0.599 0.041 0.123-1.465 1.066-1.448 1.036 0.018 0.76 1.509 1.449 1.489 0.617-0.018 0.139-1.288 1.187-1.409 0.933-0.107 0.572 1.209 1.107 1.187 0.75-0.031 0.666-1.869 1.388-1.77 0.382 0.094 0.304 0.541 0.161 1.026 0.367-0.736 0.583-1.558 0.583-2.435 0-0.269-0.038-0.525-0.08-0.784l-9.034-3.24z m-2.193 10.221c-0.806 0-1.449 0.642-1.448 1.449l0 22.554c0 0.806 0.642 1.449 1.448 1.448l11.649 0c0.806 0 1.449-0.642 1.449-1.448l0-22.554c0-0.806-0.642-1.449-1.449-1.449l-1.026 0c-0.108 0.122-0.258 0.077-0.422 0l-0.624 0c-0.334 0.568 0.283 1.892-0.121 2.374-0.378 0.451-1.117-0.949-1.408-0.362-0.478 0.964 1.31 2.226 0.966 3.32-0.154 0.489-0.88 0.042-1.006 0.382-0.533 1.435 2.88 2.627 2.213 4.004-0.336 0.694-1.949-0.317-2.274 0.382-0.684 1.477 3.336 2.811 2.495 4.205-0.243 0.402-0.963-0.23-1.408-0.08-0.482 0.162-0.692 1.166-1.167 0.986-0.738-0.28 0.429-2.187-0.342-2.354-0.527-0.114-0.326 1.384-0.865 1.368-1.342-0.04-0.763-2.937-1.972-3.521-0.428-0.207-1.033 0.533-1.408 0.241-1.242-0.965 0.188-3.259-0.423-4.708-0.193-0.459-0.833-0.532-0.966-1.126-0.187-0.837 0.631-1.751 0.423-2.576-0.189-0.748-1.25-0.489-1.308-1.287-0.043-0.59 0.749-0.793 0.865-1.248l-1.871 0z" fill="#454545" fill-opacity="1" stroke="none" data-fill-palette-color="accent"></path><path d="M24.669 29.017c-0.605 0-1.086 0.482-1.086 1.087l0 19.636c0 0.605 0.482 1.107 1.086 1.107l1.449 0c0.605 0 1.086-0.502 1.086-1.107l0-19.636c0-0.605-0.482-1.086-1.086-1.087l-1.449 0z" fill="#454545" fill-opacity="1" stroke="none" data-fill-palette-color="accent"></path><path d="M40.039 29.474c-0.562 0.223-0.832 0.848-0.609 1.41l7.237 18.254c0.223 0.562 0.856 0.851 1.418 0.629l1.365-0.542c0.562-0.223 0.825-0.867 0.602-1.429L42.815 29.542c-0.223-0.562-0.848-0.832-1.411-0.61l-1.365 0.542z" fill="#454545" fill-opacity="1" stroke="none" data-fill-palette-color="accent"></path><path d="M36.72 53.024l3.638 0c0.605 0 1.091 0.487 1.091 1.092l0 24.01c0 0.605-0.487 1.091-1.091 1.091l-3.638 0c-0.605 0-1.091-0.487-1.092-1.091l0-24.01c0-0.605 0.487-1.091 1.092-1.092z" fill="#454545" fill-opacity="1" stroke="none" data-fill-palette-color="accent"></path><path d="M29.444 53.024l3.638 0c0.605 0 1.091 0.487 1.091 1.092l0 24.01c0 0.605-0.487 1.091-1.091 1.091l-3.638 0c-0.605 0-1.091-0.487-1.091-1.091l0-24.01c0-0.605 0.487-1.091 1.091-1.092z" fill="#454545" fill-opacity="1" stroke="none" data-fill-palette-color="accent"></path><path d="M61.438 19.875C59.684 19.845 58.249 21.278 58.219 23.031L58.219 23.125C58.239 24.121 58.704 24.994 59.438 25.563L55.75 98.125 57.125 98.438 62.469 26.031C63.666 25.593 64.508 24.476 64.531 23.125 64.562 21.371 63.191 19.905 61.438 19.875zM61.375 21.281C62.288 21.281 63.031 22.025 63.031 22.938 63.031 23.85 62.288 24.594 61.375 24.594 60.462 24.594 59.719 23.85 59.719 22.938 59.719 22.025 60.462 21.281 61.375 21.281z" transform="scale(0.8,0.8)" fill="#454545" stroke="none" data-fill-palette-color="accent"></path><path d="M26.5 27.971c-1.052-0.087-1.869 0.013-2.515 0.242-1.291 0.457-1.811 1.475-1.891 2.394-0.795 7.236-0.449 16.386-0.644 24.727-0.194 8.341-0.96 15.856-3.823 19.737l-0.161 0.221 0.202 0.201c0.443 0.443 0.948 0.622 1.448 0.624 0.5 0.002 0.983-0.146 1.449-0.302 0.931-0.312 1.772-0.643 2.535-0.261 0.114 0.057 0.287 0.259 0.463 0.483 0.176 0.224 0.349 0.476 0.643 0.623 0.235 0.117 0.475 0.129 0.866 0.161 0.39 0.032 0.9 0.051 1.468 0.061 1.137 0.019 2.569-0.006 4.004-0.04 2.869-0.069 5.789-0.201 6.277-0.202l0-0.644c-0.591 0-3.437 0.132-6.297 0.202-1.43 0.035-2.863 0.059-3.984 0.04-0.561-0.009-1.042-0.03-1.408-0.06-0.366-0.03-0.642-0.1-0.644-0.101-0.048-0.024-0.222-0.213-0.402-0.443-0.181-0.229-0.392-0.508-0.705-0.664-1.055-0.527-2.114-0.062-3.017 0.242-0.452 0.152-0.882 0.263-1.248 0.261-0.291-0.001-0.544-0.148-0.805-0.342 2.895-4.206 3.592-11.59 3.783-19.777 0.195-8.369-0.143-17.53 0.644-24.687 0.065-0.741 0.399-1.472 1.468-1.851 1.07-0.379 2.936-0.374 5.996 0.624l0.201-0.604C28.838 28.326 27.552 28.058 26.5 27.971z" fill="#454545" fill-opacity="1" stroke="none" marker="none" visibility="visible" display="inline" overflow="visible" text-indent="0" text-transform="none" direction="ltr" block-progression="tb" baseline-shift="baseline" color="#454545" enable-background="accumulate" data-fill-palette-color="accent"></path><path d="M41.731 27.448c-0.596 0.022-1.265 0.192-2.012 0.523l0.261 0.584c1.383-0.613 2.322-0.582 3.018-0.202 0.696 0.381 1.19 1.163 1.569 2.173 0.759 2.02 0.965 4.845 1.57 6.66 0.324 0.971 1.109 2.137 1.509 2.937 4.248 8.496 5.637 17.589 3.018 28.067-0.272 1.087-0.351 3.023-0.644 4.849-0.147 0.913-0.35 1.805-0.624 2.495-0.274 0.69-0.62 1.165-1.026 1.368-0.059 0.029-0.069 0.032-0.141 0-0.072-0.032-0.177-0.124-0.302-0.262-0.249-0.276-0.54-0.735-0.865-1.187-0.325-0.452-0.687-0.911-1.147-1.207-0.46-0.297-1.071-0.38-1.67-0.08-0.423 0.212-0.579 0.66-0.643 1.086-0.065 0.426-0.046 0.88-0.061 1.268-0.015 0.388-0.089 0.699-0.141 0.764-0.026 0.033-0.014 0.019-0.08 0.02-0.067 0.001-0.23-0.015-0.443-0.12-0.545-0.272-0.807-0.474-1.509-0.825l-0.281 0.563c0.665 0.332 0.919 0.539 1.489 0.825l0.02 0c0.266 0.133 0.497 0.205 0.724 0.201 0.227-0.004 0.454-0.1 0.583-0.261 0.258-0.322 0.266-0.731 0.282-1.147 0.016-0.416 0.008-0.864 0.06-1.207 0.052-0.343 0.136-0.531 0.282-0.604 0.418-0.209 0.699-0.151 1.026 0.06 0.327 0.211 0.675 0.614 0.986 1.047 0.31 0.432 0.594 0.882 0.905 1.227 0.156 0.173 0.319 0.33 0.524 0.422 0.204 0.093 0.461 0.111 0.684 0 0.626-0.313 1.044-0.966 1.348-1.73 0.304-0.765 0.493-1.658 0.643-2.595 0.301-1.874 0.41-3.873 0.644-4.809C53.941 57.735 52.534 48.431 48.229 39.822 47.794 38.952 47.032 37.799 46.76 36.985 46.207 35.326 45.985 32.469 45.171 30.305 44.764 29.223 44.2 28.283 43.3 27.79 42.85 27.544 42.327 27.426 41.731 27.448z" fill="#454545" fill-opacity="1" stroke="none" marker="none" visibility="visible" display="inline" overflow="visible" text-indent="0" text-transform="none" direction="ltr" block-progression="tb" baseline-shift="baseline" color="#454545" enable-background="accumulate" data-fill-palette-color="accent"></path><path d="M30.025 22.768c-0.238 0.053-0.453 0.277-0.503 0.478-0.05 0.201-0.005 0.369 0.025 0.553 0.06 0.369 0.158 0.78 0.151 0.956-0.027 0.648-0.298 1.422-0.076 2.238 0.127 0.464 0.47 0.741 0.73 1.006 0.259 0.265 0.402 0.471 0.402 0.679 0 0.043 0.007 0.082-0.05 0.151-0.057 0.069-0.161 0.152-0.277 0.252-0.116 0.1-0.242 0.219-0.352 0.377-0.11 0.159-0.193 0.366-0.176 0.603 0.02 0.272 0.14 0.509 0.302 0.654 0.162 0.145 0.326 0.236 0.478 0.302 0.152 0.066 0.294 0.115 0.377 0.176 0.084 0.061 0.122 0.113 0.151 0.226 0.072 0.286-0.043 0.647-0.201 1.082-0.158 0.434-0.347 0.942-0.227 1.484 0.09 0.403 0.364 0.644 0.579 0.804 0.214 0.161 0.353 0.26 0.402 0.378 0.247 0.586 0.078 1.474-0.05 2.364-0.064 0.445-0.108 0.879-0.051 1.308 0.058 0.429 0.246 0.859 0.629 1.156 0.178 0.138 0.408 0.161 0.579 0.126 0.171-0.035 0.299-0.115 0.427-0.176 0.128-0.061 0.246-0.103 0.327-0.126 0.081-0.023 0.112-0.032 0.126-0.025 0.199 0.096 0.356 0.314 0.478 0.629 0.122 0.315 0.189 0.703 0.276 1.107 0.088 0.404 0.192 0.813 0.378 1.156 0.185 0.344 0.529 0.64 0.98 0.654 0.141 0.004 0.279-0.045 0.378-0.125 0.098-0.081 0.156-0.183 0.201-0.277 0.091-0.188 0.133-0.375 0.176-0.553 0.018-0.077 0.032-0.112 0.05-0.176-0.009 0.144-0.034 0.315-0.075 0.528-0.052 0.265-0.108 0.526-0.101 0.804 0.004 0.139 0.029 0.287 0.101 0.428 0.071 0.14 0.216 0.265 0.377 0.327 0.218 0.083 0.453 0.013 0.604-0.101 0.15-0.114 0.261-0.246 0.352-0.377 0.181-0.262 0.364-0.482 0.427-0.503 0.045-0.015 0.296 0.058 0.579 0.151 0.141 0.047 0.273 0.101 0.452 0.101 0.18 0 0.412-0.109 0.528-0.302 0.14-0.233 0.191-0.488 0.151-0.729-0.04-0.241-0.133-0.457-0.276-0.654-0.286-0.394-0.723-0.762-1.132-1.107-0.409-0.345-0.798-0.673-1.031-0.981-0.234-0.307-0.289-0.511-0.176-0.754 0.026-0.055 0.033-0.066 0.176-0.076 0.144-0.01 0.36 0.036 0.603 0.076 0.244 0.04 0.492 0.067 0.755 0.05 0.263-0.017 0.588-0.135 0.729-0.428 0.222-0.458 0.101-0.954-0.151-1.332-0.252-0.379-0.628-0.704-0.98-1.032-0.353-0.327-0.676-0.639-0.881-0.93-0.183-0.262-0.228-0.468-0.176-0.679 0.047 0 0.093-0.004 0.176 0 0.119 0.005 0.261 0.032 0.428-0.025 0.167-0.057 0.338-0.221 0.402-0.428 0.115-0.367 0.052-0.755-0.075-1.081-0.127-0.326-0.306-0.619-0.478-0.906-0.172-0.286-0.348-0.554-0.428-0.779-0.06-0.172-0.027-0.287 0-0.403 0.055 0.038 0.097 0.06 0.176 0.126 0.133 0.111 0.261 0.236 0.453 0.327 0.096 0.045 0.213 0.089 0.352 0.075 0.139-0.014 0.287-0.093 0.377-0.201 0.178-0.212 0.223-0.487 0.227-0.729 0.004-0.243-0.044-0.466-0.076-0.704-0.032-0.238-0.05-0.472-0.05-0.654 0-0.157 0.046-0.243 0.076-0.302 0.039 0.015 0.058 0.043 0.125 0.076 0.104 0.05 0.225 0.107 0.403 0.125 0.177 0.019 0.445-0.086 0.553-0.276 0.244-0.429 0.167-0.911 0.075-1.358-0.092-0.447-0.213-0.891-0.226-1.233-0.003-0.087-0.003-0.201 0-0.302 0.006-0.227 0.165-0.697 0.277-1.131 0.056-0.217 0.113-0.423 0.075-0.654-0.037-0.231-0.236-0.488-0.503-0.553l-0.025 0-0.025 0c-0.156-0.021-0.303 0.001-0.428 0.075-0.125 0.074-0.231 0.197-0.301 0.302-0.141 0.21-0.219 0.429-0.302 0.654-0.083 0.225-0.17 0.449-0.252 0.578-0.062 0.099-0.087 0.114-0.126 0.126-0.028-0.068-0.079-0.191-0.125-0.352-0.05-0.171-0.106-0.38-0.277-0.553-0.17-0.174-0.45-0.286-0.754-0.252-0.328 0.038-0.592 0.207-0.755 0.402-0.163 0.195-0.226 0.397-0.277 0.579-0.05 0.182-0.095 0.338-0.125 0.402-0.031 0.064 0.018 0.024-0.025 0.025-0.057 0.002-0.023 0.009-0.076-0.075-0.053-0.085-0.126-0.257-0.201-0.453-0.075-0.196-0.174-0.408-0.352-0.603-0.178-0.196-0.443-0.346-0.78-0.352-0.321-0.005-0.606 0.145-0.754 0.352-0.149 0.207-0.21 0.433-0.252 0.628-0.028 0.131-0.053 0.213-0.075 0.302-0.014-0.094-0.037-0.18-0.051-0.327-0.019-0.204-0.035-0.45-0.15-0.679-0.116-0.229-0.361-0.422-0.679-0.478-0.32-0.056-0.612 0.011-0.805 0.176-0.193 0.165-0.278 0.378-0.352 0.554-0.07 0.166-0.137 0.31-0.176 0.377-0.062-0.021-0.113-0.051-0.176-0.226-0.071-0.197-0.131-0.505-0.176-0.805-0.045-0.3-0.084-0.588-0.202-0.855-0.059-0.134-0.133-0.281-0.276-0.378-0.13-0.087-0.292-0.099-0.453-0.075-0.017 0.003-0.033-0.004-0.05 0z m0.125 0.629c0.043-0.01 0.027 0.001 0.026 0-0.002-0.001 0.021 0.009 0.05 0.075 0.059 0.134 0.106 0.407 0.151 0.704 0.045 0.298 0.095 0.636 0.201 0.931 0.106 0.294 0.315 0.584 0.679 0.654 0.133 0.026 0.288 0.014 0.402-0.05 0.115-0.065 0.172-0.166 0.227-0.252 0.108-0.17 0.165-0.331 0.226-0.478 0.062-0.146 0.142-0.251 0.201-0.302 0.059-0.051 0.1-0.081 0.277-0.05 0.145 0.025 0.156 0.061 0.201 0.151 0.045 0.09 0.084 0.243 0.101 0.428 0.017 0.184 0.013 0.396 0.075 0.603 0.031 0.104 0.078 0.205 0.176 0.302 0.098 0.097 0.26 0.166 0.403 0.176 0.14 0.009 0.295-0.04 0.402-0.126 0.107-0.085 0.161-0.179 0.201-0.276 0.081-0.195 0.115-0.406 0.151-0.579 0.036-0.172 0.077-0.309 0.126-0.377 0.049-0.068 0.05-0.078 0.201-0.076 0.181 0.003 0.272 0.038 0.352 0.126 0.08 0.088 0.134 0.251 0.201 0.428 0.067 0.177 0.133 0.363 0.252 0.553 0.118 0.19 0.366 0.386 0.654 0.377 0.266-0.008 0.49-0.22 0.578-0.402 0.089-0.183 0.108-0.35 0.151-0.503 0.042-0.153 0.111-0.275 0.176-0.352 0.065-0.077 0.131-0.128 0.327-0.151 0.162-0.019 0.187 0.01 0.226 0.05 0.039 0.04 0.085 0.138 0.126 0.277 0.041 0.139 0.07 0.305 0.151 0.478 0.04 0.086 0.102 0.174 0.201 0.251 0.1 0.077 0.246 0.131 0.377 0.126 0.319-0.013 0.541-0.233 0.68-0.453 0.138-0.22 0.219-0.48 0.301-0.704 0.083-0.224 0.18-0.421 0.252-0.528 0.036-0.054 0.063-0.093 0.075-0.101 0.012-0.007 0.001-0.003 0.025 0-0.003-0.002-0.005-0.004 0 0.025 0.009 0.059-0.028 0.218-0.075 0.403-0.095 0.369-0.291 0.833-0.302 1.282-0.003 0.1-0.004 0.212 0 0.327 0.018 0.467 0.168 0.925 0.252 1.333 0.077 0.374 0.051 0.644-0.025 0.83-0.034-0.013-0.05-0.026-0.101-0.05-0.101-0.049-0.208-0.099-0.377-0.126-0.169-0.027-0.425 0.045-0.554 0.227-0.158 0.224-0.202 0.483-0.201 0.729 0.001 0.246 0.044 0.492 0.076 0.729 0.032 0.237 0.053 0.457 0.05 0.629-0.002 0.144-0.025 0.205-0.05 0.251-0.068-0.038-0.178-0.123-0.302-0.226-0.136-0.113-0.272-0.225-0.478-0.302-0.103-0.038-0.235-0.078-0.377-0.025-0.142 0.053-0.242 0.181-0.302 0.302-0.168 0.338-0.137 0.689-0.025 1.006 0.112 0.317 0.305 0.617 0.478 0.905 0.173 0.288 0.33 0.58 0.427 0.83 0.097 0.25 0.132 0.449 0.076 0.629-0.019 0.006-0.1 0.029-0.202 0.025-0.101-0.004-0.229-0.022-0.377 0-0.148 0.022-0.377 0.124-0.452 0.327-0.177 0.478 0.01 0.952 0.276 1.333 0.266 0.381 0.629 0.73 0.981 1.056 0.352 0.326 0.67 0.651 0.855 0.931 0.185 0.279 0.237 0.448 0.126 0.679-0.026 0.054-0.03 0.066-0.176 0.075-0.146 0.009-0.385-0.036-0.629-0.075-0.244-0.04-0.492-0.068-0.754-0.05-0.262 0.018-0.593 0.133-0.73 0.427-0.229 0.495-0.027 1.009 0.277 1.408 0.303 0.399 0.724 0.762 1.132 1.107 0.408 0.344 0.794 0.689 1.006 0.981 0.106 0.146 0.159 0.274 0.176 0.377 0.016 0.095 0.005 0.175-0.051 0.277-0.037 0-0.127-0.034-0.251-0.076-0.25-0.083-0.605-0.26-1.006-0.125-0.418 0.14-0.567 0.52-0.729 0.754-0.081 0.117-0.164 0.198-0.202 0.226-0.023-0.009-0.016 0.018-0.025 0-0.009-0.018-0.023-0.07-0.025-0.151-0.004-0.161 0.049-0.414 0.101-0.679 0.052-0.265 0.089-0.558 0.075-0.829-0.007-0.136-0.014-0.266-0.101-0.403-0.086-0.136-0.261-0.241-0.427-0.277-0.135-0.029-0.289-0.023-0.402 0.051-0.114 0.073-0.178 0.185-0.227 0.276-0.096 0.183-0.133 0.375-0.176 0.554-0.043 0.179-0.085 0.344-0.126 0.427-0.008 0.017 0.006 0.016 0 0.025-0.219-0.006-0.306-0.075-0.427-0.301-0.122-0.227-0.216-0.585-0.302-0.981-0.086-0.396-0.15-0.84-0.302-1.233-0.152-0.392-0.4-0.76-0.805-0.955-0.2-0.097-0.414-0.071-0.578-0.025-0.164 0.046-0.304 0.118-0.427 0.176-0.123 0.058-0.215 0.088-0.277 0.1-0.061 0.013-0.066 0.033-0.076 0.025-0.238-0.185-0.335-0.413-0.377-0.729-0.043-0.317-0.011-0.729 0.05-1.157 0.124-0.856 0.389-1.828 0.026-2.691-0.144-0.341-0.439-0.511-0.629-0.654-0.19-0.142-0.284-0.235-0.327-0.427-0.066-0.295 0.042-0.671 0.201-1.107 0.159-0.436 0.362-0.946 0.226-1.484-0.066-0.261-0.231-0.453-0.402-0.578-0.171-0.125-0.333-0.189-0.478-0.252-0.145-0.062-0.267-0.122-0.327-0.176-0.06-0.054-0.091-0.074-0.1-0.201-0.006-0.081 0.025-0.129 0.075-0.201 0.05-0.072 0.118-0.158 0.227-0.251 0.109-0.093 0.238-0.215 0.352-0.353 0.114-0.137 0.227-0.327 0.226-0.553-0.001-0.502-0.329-0.852-0.604-1.132-0.274-0.28-0.518-0.508-0.578-0.729-0.154-0.563 0.068-1.256 0.101-2.037 0.016-0.384-0.102-0.782-0.151-1.081-0.024-0.15-0.035-0.264-0.026-0.302z" fill="#454545" fill-opacity="1" stroke="none" marker="none" visibility="visible" display="inline" overflow="visible" text-indent="0" text-transform="none" direction="ltr" block-progression="tb" baseline-shift="baseline" color="#454545" enable-background="accumulate" data-fill-palette-color="accent"></path></svg></g></svg></g><g><path d="M18.406 97.743l3.008-8.409 10.561 3.777c0.21 1.17 0.231 2.485 0.063 3.944-0.166 1.453-0.498 2.874-0.996 4.265v0c-0.713 1.992-1.667 3.671-2.862 5.038-1.193 1.361-2.544 2.411-4.052 3.151-1.508 0.739-3.122 1.144-4.843 1.214-1.718 0.064-3.47-0.224-5.256-0.863v0c-1.973-0.706-3.647-1.704-5.023-2.994-1.382-1.293-2.447-2.758-3.196-4.397-0.743-1.636-1.162-3.369-1.257-5.198-0.091-1.82 0.183-3.623 0.822-5.408v0c0.43-1.203 1.038-2.409 1.824-3.619 0.786-1.21 1.641-2.197 2.564-2.961v0l2.433 2.947c-0.33 0.271-0.657 0.602-0.981 0.995-0.326 0.399-0.632 0.82-0.918 1.262-0.294 0.446-0.556 0.903-0.787 1.371-0.229 0.462-0.423 0.916-0.582 1.361v0c-0.439 1.228-0.62 2.495-0.544 3.801 0.083 1.309 0.4 2.545 0.952 3.71 0.551 1.165 1.315 2.209 2.292 3.131 0.975 0.928 2.133 1.632 3.474 2.112v0c1.228 0.439 2.468 0.625 3.722 0.557 1.251-0.061 2.438-0.347 3.56-0.857 1.124-0.516 2.134-1.254 3.028-2.213 0.894-0.959 1.585-2.121 2.074-3.486v0c0.19-0.532 0.364-1.184 0.519-1.956 0.153-0.765 0.226-1.53 0.217-2.296v0l-4.801-1.717-1.755 4.904z" fill="#454545" data-fill-palette-color="primary"></path><path d="M43.651 76.704l-22.016-15.218 2.286-3.308 22.017 15.218z" fill="#454545" data-fill-palette-color="primary"></path><path d="M41.681 38.73l13.326-11.163 2.467 2.945-5.179 4.338 14.719 17.572-3.082 2.583-14.719-17.572-5.065 4.242z" fill="#454545" data-fill-palette-color="primary"></path><path d="M105.168 5.011l3.974-1.392c-0.061 2.503-0.139 5.131-0.232 7.884-0.091 2.76-0.185 5.471-0.283 8.135-0.095 2.669-0.18 5.205-0.255 7.606-0.072 2.393-0.119 4.454-0.141 6.182v0l-10.581-12.135c-0.133-0.158-0.238-0.276-0.314-0.355-0.083-0.077-0.179-0.198-0.287-0.365v0c0.031 0.088 0.048 0.177 0.052 0.268 0.003 0.09 0.012 0.186 0.026 0.287v0c0.008 0.103 0.016 0.206 0.024 0.308v0c-0.158 2.085-0.315 4.135-0.47 6.149v0c-0.061 0.853-0.129 1.737-0.204 2.651-0.071 0.906-0.133 1.805-0.186 2.698-0.054 0.893-0.112 1.755-0.173 2.587-0.061 0.832-0.116 1.581-0.165 2.247v0c-3.213-3.802-6.431-7.589-9.654-11.359-3.225-3.777-6.445-7.58-9.661-11.41v0l4.286-1.5c1.097 1.343 2.213 2.686 3.345 4.03 1.135 1.351 2.216 2.657 3.243 3.919 1.031 1.253 1.969 2.423 2.814 3.508 0.852 1.083 1.544 2.015 2.078 2.794v0l0.698 1.119c-0.014-0.122-0.022-0.334-0.022-0.637 0.002-0.297 0.004-0.512 0.006-0.647v0c-0.008-0.103 0.001-0.339 0.027-0.707 0.024-0.375 0.051-0.821 0.081-1.34 0.024-0.516 0.059-1.081 0.104-1.696 0.043-0.621 0.084-1.249 0.124-1.883v0c0.11-1.477 0.229-3.111 0.356-4.903v0c-0.77-0.95-1.475-1.848-2.117-2.695v0c-0.562-0.72-1.103-1.429-1.623-2.128-0.522-0.705-0.901-1.214-1.137-1.527v0l3.655-1.279c1.917 2.275 3.697 4.38 5.34 6.314v0c0.684 0.825 1.371 1.652 2.063 2.482 0.69 0.823 1.335 1.588 1.934 2.294 0.597 0.7 1.12 1.317 1.568 1.851 0.448 0.534 0.768 0.926 0.961 1.175v0c0.142 0.183 0.266 0.368 0.374 0.556 0.1 0.184 0.211 0.37 0.334 0.56v0c-0.029-0.223-0.063-0.443-0.105-0.661-0.037-0.227-0.065-0.439-0.085-0.636v0c-0.103-0.979-0.155-2.173-0.154-3.583 0-1.41 0.021-2.929 0.064-4.558 0.041-1.635 0.092-3.331 0.154-5.087 0.062-1.756 0.117-3.463 0.164-5.121z" fill="#454545" data-fill-palette-color="primary"></path><path d="M135.588 26.926l-1.286-26.733 4.017-0.193 1.286 26.733z" fill="#454545" data-fill-palette-color="primary"></path><path d="M169.731 3.588v0l15.37 3.776-20.23 18.603 15.099 3.709-0.924 3.76-21.901-5.38c0.315-0.251 0.815-0.697 1.499-1.337 0.693-0.645 1.503-1.405 2.431-2.28 0.921-0.877 1.934-1.837 3.04-2.881 1.106-1.044 2.233-2.103 3.38-3.177 1.154-1.073 2.284-2.131 3.39-3.175 1.107-1.05 2.12-2.007 3.038-2.871 0.924-0.862 1.729-1.6 2.413-2.212 0.68-0.621 1.178-1.057 1.493-1.309v0l-10.389-2.552c-0.388-0.095-0.752-0.243-1.093-0.443-0.341-0.2-0.634-0.43-0.879-0.688-0.237-0.264-0.411-0.56-0.521-0.889-0.111-0.329-0.122-0.674-0.034-1.036v0l0.51-2.074 3.517 0.865-0.121 0.494c-0.106 0.433-0.083 0.699 0.071 0.798 0.154 0.099 0.434 0.199 0.841 0.299z" fill="#454545" data-fill-palette-color="primary"></path><path d="M212.849 51.941l-3.366-2.126c0.039-0.298 0.102-0.722 0.19-1.273 0.091-0.556 0.198-1.197 0.318-1.924 0.123-0.717 0.258-1.505 0.407-2.363 0.145-0.853 0.301-1.734 0.466-2.644v0l-7.99-5.047-6.781 4.793-3.366-2.126 25.032-17.32c-0.052 0.369-0.161 1.039-0.327 2.013-0.166 0.973-0.363 2.139-0.592 3.497-0.231 1.349-0.481 2.848-0.75 4.495-0.269 1.647-0.538 3.319-0.807 5.015-0.268 1.695-0.534 3.361-0.796 4.997-0.266 1.642-0.512 3.147-0.738 4.515-0.221 1.371-0.411 2.538-0.57 3.499-0.159 0.962-0.269 1.628-0.33 1.999zM212.199 29.966l-6.318 4.472 5.644 3.566c0.147-0.867 0.288-1.702 0.426-2.505 0.139-0.793 0.268-1.527 0.386-2.2 0.115-0.667 0.215-1.249 0.3-1.746 0.084-0.506 0.154-0.898 0.212-1.176v0c0.012-0.056 0.059-0.23 0.142-0.524 0.083-0.294 0.168-0.559 0.254-0.796v0c-0.171 0.183-0.377 0.372-0.617 0.567-0.241 0.194-0.384 0.308-0.429 0.342z" fill="#454545" data-fill-palette-color="primary"></path><path d="M228.177 66.94l-2.626-3.097 20.414-17.309 4.73 5.579c0.903 1.066 1.592 2.165 2.065 3.3 0.478 1.13 0.714 2.251 0.707 3.364-0.007 1.123-0.259 2.199-0.754 3.231-0.491 1.036-1.252 1.99-2.282 2.863v0c-0.563 0.478-1.171 0.892-1.823 1.245-0.653 0.362-1.343 0.633-2.071 0.814-0.733 0.185-1.485 0.269-2.258 0.253-0.777-0.021-1.554-0.187-2.331-0.497v0c-0.546 1.753-1.162 3.68-1.849 5.781-0.687 2.1-1.335 4.181-1.944 6.241v0l-3.124-3.684c0.265-0.87 0.543-1.777 0.833-2.721 0.299-0.943 0.592-1.884 0.877-2.824 0.289-0.934 0.575-1.853 0.857-2.754 0.282-0.902 0.543-1.747 0.782-2.534v0l-0.478-0.564-2.433-2.869zM245.714 52.071l-7.345 6.228 2.362 2.786c0.637 0.751 1.297 1.273 1.981 1.565 0.684 0.292 1.336 0.424 1.957 0.395 0.625-0.024 1.205-0.158 1.74-0.402 0.535-0.244 0.979-0.516 1.334-0.818v0c0.355-0.301 0.694-0.693 1.018-1.177 0.318-0.479 0.53-1.025 0.637-1.639 0.112-0.609 0.078-1.266-0.1-1.97-0.178-0.704-0.577-1.421-1.196-2.151v0z" fill="#454545" data-fill-palette-color="primary"></path><path d="M246.419 94.345l24.855-9.929 2.491 6.237c1.004 2.514 1.477 4.79 1.416 6.827-0.06 2.037-0.485 3.844-1.273 5.42-0.789 1.576-1.846 2.912-3.171 4.006-1.322 1.101-2.737 1.953-4.244 2.556v0c-1.853 0.74-3.66 1.079-5.419 1.015-1.762-0.07-3.399-0.465-4.912-1.187-1.507-0.723-2.839-1.728-3.998-3.013-1.164-1.283-2.083-2.768-2.757-4.454v0zM251.479 96.654l1.274 3.188c0.531 1.328 1.216 2.48 2.057 3.455 0.835 0.978 1.792 1.734 2.873 2.269 1.075 0.538 2.249 0.824 3.524 0.86 1.269 0.038 2.614-0.227 4.035-0.795v0c1.507-0.602 2.715-1.389 3.623-2.361 0.908-0.972 1.564-2.029 1.968-3.172 0.409-1.145 0.578-2.319 0.506-3.522-0.072-1.203-0.328-2.355-0.768-3.455v0l-1.41-3.53z" fill="#454545" data-fill-palette-color="primary"></path><path d="M28.064 190.166l3.033 8.464-10.635 3.811c-0.907-0.777-1.763-1.785-2.567-3.024-0.798-1.241-1.447-2.559-1.948-3.955v0c-0.718-2.004-1.047-3.918-0.986-5.742 0.054-1.821 0.43-3.504 1.127-5.047 0.7-1.537 1.699-2.881 2.997-4.031 1.298-1.151 2.842-2.047 4.634-2.689v0c1.985-0.711 3.926-1.004 5.823-0.878 1.901 0.117 3.666 0.577 5.296 1.378 1.621 0.797 3.053 1.874 4.295 3.231 1.236 1.359 2.176 2.937 2.821 4.735v0c0.433 1.209 0.729 2.537 0.887 3.985 0.163 1.44 0.128 2.753-0.104 3.939v0l-3.773-0.737c0.081-0.425 0.121-0.895 0.12-1.41 0.001-0.509-0.026-1.029-0.082-1.561-0.058-0.537-0.147-1.06-0.266-1.569-0.119-0.509-0.258-0.985-0.417-1.43v0c-0.442-1.234-1.112-2.333-2.008-3.298-0.899-0.971-1.936-1.734-3.11-2.288-1.172-0.548-2.432-0.871-3.781-0.967-1.349-0.096-2.7 0.098-4.052 0.583v0c-1.234 0.442-2.317 1.088-3.249 1.938-0.934 0.844-1.675 1.823-2.223 2.938-0.545 1.121-0.858 2.339-0.938 3.654-0.078 1.321 0.129 2.667 0.62 4.039v0c0.193 0.539 0.471 1.156 0.834 1.853 0.369 0.695 0.803 1.334 1.302 1.918v0l4.829-1.73-1.767-4.932z" fill="#454545" data-fill-palette-color="primary"></path><path d="M30.933 223.388l22.153-15.317 2.305 3.332-22.154 15.318z" fill="#454545" data-fill-palette-color="primary"></path><path d="M66.171 223.192l13.407 11.237-2.481 2.959-5.208-4.365-14.82 17.683-3.105-2.603 14.82-17.682-5.094-4.269z" fill="#454545" data-fill-palette-color="primary"></path><path d="M117.806 250.409l3.994 1.398c-1.62 1.928-3.331 3.948-5.135 6.059-1.797 2.113-3.57 4.188-5.319 6.226-1.75 2.038-3.408 3.977-4.976 5.817-1.559 1.837-2.889 3.429-3.989 4.778v0l-0.707-16.191c-0.012-0.208-0.023-0.367-0.034-0.477-0.011-0.11-0.009-0.267 0.008-0.473v0c-0.033 0.094-0.076 0.178-0.13 0.25-0.047 0.075-0.1 0.155-0.159 0.241v0c-0.058 0.085-0.113 0.172-0.165 0.259v0c-1.435 1.542-2.845 3.053-4.23 4.535v0c-0.588 0.633-1.198 1.287-1.829 1.961-0.631 0.674-1.246 1.344-1.845 2.008-0.601 0.671-1.185 1.312-1.752 1.924-0.569 0.618-1.084 1.175-1.546 1.668v0c-0.135-5.01-0.287-10.011-0.456-15.004-0.171-4.987-0.32-9.998-0.447-15.032v0l4.314 1.51c0.018 1.74 0.052 3.497 0.101 5.269 0.047 1.779 0.08 3.485 0.099 5.12 0.022 1.629 0.025 3.139 0.011 4.529-0.012 1.384-0.054 2.55-0.125 3.498v0l-0.146 1.324c0.061-0.113 0.184-0.284 0.371-0.515 0.189-0.237 0.329-0.406 0.421-0.509v0c0.052-0.088 0.207-0.269 0.466-0.545 0.252-0.278 0.553-0.613 0.902-1.006 0.347-0.386 0.731-0.809 1.152-1.267 0.419-0.452 0.844-0.92 1.274-1.404v0c1.014-1.083 2.134-2.291 3.362-3.623v0c-0.017-1.24-0.009-2.389 0.023-3.449v0c0.005-0.921 0.024-1.821 0.056-2.698 0.034-0.883 0.053-1.521 0.057-1.915v0l3.683 1.289c0.079 2.995 0.16 5.765 0.241 8.311v0c0.015 1.084 0.037 2.17 0.065 3.258 0.024 1.08 0.053 2.084 0.087 3.012 0.026 0.932 0.047 1.747 0.065 2.444 0.015 0.703 0.02 1.212 0.015 1.527v0c-0.003 0.231-0.022 0.454-0.055 0.669-0.033 0.214-0.063 0.432-0.091 0.655v0c0.117-0.192 0.231-0.388 0.343-0.588 0.11-0.194 0.22-0.378 0.33-0.551v0c0.532-0.836 1.239-1.808 2.121-2.916 0.888-1.106 1.859-2.289 2.912-3.548 1.06-1.257 2.168-2.558 3.322-3.901 1.152-1.338 2.266-2.647 3.341-3.927z" fill="#454545" data-fill-palette-color="primary"></path><path d="M134.81 279.804l1.303-26.902 4.047 0.196-1.303 26.902z" fill="#454545" data-fill-palette-color="primary"></path><path d="M160.523 250.58v0l15.479-3.792-9.387 26.013 15.188-3.722 0.928 3.79-22.04 5.4c0.163-0.369 0.402-1.003 0.715-1.901 0.316-0.892 0.684-1.945 1.107-3.158 0.416-1.211 0.871-2.539 1.367-3.982 0.501-1.451 1.013-2.923 1.538-4.415 0.531-1.493 1.044-2.965 1.538-4.415 0.502-1.445 0.963-2.767 1.381-3.965 0.425-1.2 0.798-2.237 1.119-3.11 0.322-0.867 0.564-1.484 0.727-1.853v0l-10.458 2.563c-0.388 0.095-0.782 0.133-1.184 0.115-0.395-0.02-0.762-0.091-1.1-0.213-0.338-0.123-0.633-0.304-0.883-0.544-0.246-0.248-0.413-0.553-0.502-0.915v0l-0.513-2.093 3.528-0.865 0.126 0.514c0.106 0.433 0.25 0.658 0.432 0.675 0.182 0.017 0.48-0.025 0.894-0.127z" fill="#454545" data-fill-palette-color="primary"></path><path d="M221.118 252.414l-3.393 2.141c-0.252-0.163-0.61-0.406-1.073-0.728-0.468-0.318-1.006-0.691-1.613-1.117-0.598-0.425-1.256-0.887-1.973-1.387-0.711-0.503-1.443-1.028-2.197-1.576v0l-8.043 5.074 1.42 8.237-3.393 2.14-4.896-30.243c0.308 0.214 0.869 0.604 1.681 1.169 0.816 0.571 1.79 1.254 2.922 2.051 1.132 0.796 2.388 1.672 3.768 2.625 1.378 0.963 2.78 1.932 4.205 2.905 1.419 0.977 2.817 1.94 4.193 2.889 1.371 0.952 2.632 1.828 3.782 2.628 1.146 0.795 2.124 1.472 2.933 2.032 0.803 0.563 1.362 0.95 1.677 1.16zM200.861 243.495l1.329 7.68 5.688-3.588c-0.729-0.508-1.424-0.998-2.083-1.47-0.669-0.475-1.282-0.91-1.839-1.306-0.557-0.396-1.044-0.738-1.461-1.025-0.421-0.293-0.746-0.528-0.976-0.706v0c-0.042-0.029-0.179-0.147-0.412-0.354-0.233-0.207-0.437-0.4-0.614-0.58v0c0.092 0.233 0.176 0.503 0.251 0.809 0.075 0.306 0.114 0.486 0.117 0.54z" fill="#454545" data-fill-palette-color="primary"></path><path d="M239.905 234.423l-2.649 3.119-20.53-17.433 4.76-5.607c0.917-1.08 1.897-1.946 2.939-2.597 1.046-0.656 2.126-1.075 3.239-1.255 1.104-0.18 2.212-0.107 3.324 0.217 1.107 0.32 2.18 0.922 3.22 1.805v0c0.563 0.478 1.074 1.012 1.533 1.602 0.463 0.585 0.846 1.224 1.147 1.917 0.303 0.702 0.507 1.438 0.612 2.209 0.11 0.774 0.074 1.573-0.109 2.394v0c1.833 0.256 3.847 0.552 6.041 0.888 2.199 0.34 4.373 0.641 6.523 0.905v0l-3.152 3.712c-0.902-0.12-1.847-0.251-2.835-0.391-0.989-0.141-1.969-0.276-2.943-0.405-0.978-0.133-1.94-0.264-2.885-0.394-0.941-0.136-1.819-0.257-2.636-0.366v0l-0.484 0.571-2.448 2.883zM222.265 219.444l7.386 6.272 2.377-2.799c0.642-0.756 1.053-1.497 1.234-2.225 0.177-0.722 0.2-1.392 0.07-2.009-0.126-0.613-0.355-1.165-0.687-1.657-0.328-0.488-0.672-0.884-1.032-1.19v0c-0.36-0.306-0.802-0.576-1.326-0.813-0.529-0.24-1.108-0.365-1.737-0.375-0.619-0.011-1.266 0.129-1.941 0.421-0.67 0.295-1.317 0.811-1.941 1.546v0z" fill="#454545" data-fill-palette-color="primary"></path><path d="M260.725 202.808l-25.004-10.012 2.515-6.281c1.011-2.526 2.247-4.511 3.706-5.954 1.459-1.444 3.023-2.466 4.69-3.067 1.667-0.601 3.365-0.842 5.094-0.723 1.723 0.117 3.345 0.479 4.864 1.087v0c1.859 0.744 3.408 1.752 4.648 3.022 1.24 1.27 2.158 2.691 2.754 4.263 0.602 1.574 0.88 3.233 0.834 4.978-0.046 1.744-0.409 3.466-1.089 5.164v0zM258.646 197.611l1.283-3.205c0.534-1.334 0.834-2.647 0.9-3.94 0.062-1.301-0.112-2.521-0.523-3.66-0.413-1.133-1.072-2.156-1.974-3.069-0.899-0.905-2.062-1.643-3.489-2.214v0c-1.519-0.608-2.947-0.872-4.284-0.791-1.34 0.072-2.555 0.385-3.643 0.939-1.089 0.553-2.023 1.293-2.803 2.22-0.786 0.925-1.4 1.94-1.843 3.046v0l-1.421 3.548z" fill="#454545" data-fill-palette-color="primary"></path><path d="M3.519 145.636c0-5.933 4.809-10.742 10.742-10.743 5.933 0 10.742 4.809 10.742 10.743 0 5.933-4.809 10.742-10.742 10.742-5.933 0-10.742-4.809-10.742-10.742z" fill="#454545" data-fill-palette-color="primary"></path><path d="M254.997 145.636c0-5.933 4.809-10.742 10.742-10.743 5.933 0 10.742 4.809 10.742 10.743 0 5.933-4.809 10.742-10.742 10.742-5.933 0-10.742-4.809-10.742-10.742z" fill="#454545" data-fill-palette-color="primary"></path></g></svg></g></svg></g></svg></g><g></g></svg></g><defs></defs></svg><rect width="280" height="280" fill="none" stroke="none" visibility="hidden"></rect></g></svg>